<?xml version="1.0" encoding="utf-8"?>
<svg width="370" height="68" viewBox="0 0 370 68" fill="none" xmlns="http://www.w3.org/2000/svg">
  <g clip-path="url(#clip0_5_1133)">
    <path d="M108.336 31.4116C101.202 31.4116 99.7236 27.2342 99.7236 24.5243V23.9661C99.7236 21.2382 101.167 17.1508 108.336 17.1508H109.17C116.376 17.1508 117.693 20.5089 117.693 22.8317V22.9848H112.54C112.486 22.6517 112.19 20.9051 108.767 20.9051C105.567 20.9051 104.94 22.7777 104.94 24.1012V24.3262C104.94 25.6587 105.603 27.6123 108.785 27.6123C112.181 27.6123 112.477 25.8477 112.54 25.5506H117.693V25.7037C117.693 27.8554 116.42 31.4206 109.17 31.4206H108.336V31.4116ZM120.158 17.3759H136.164V31.1865H131.19V20.8691H125.15V31.1865H120.158V17.3759ZM152.996 17.3759V20.716H144.239V22.4806H152.718V25.9108H144.239V27.8014H153.13V31.1775H139.274V17.3669H153.005L152.996 17.3759ZM169.549 31.1865H155.89V17.3759H160.882V27.7024H166.923V17.3759H171.897V27.7024H174.111V33.5093H169.549V31.1865ZM187.581 28.9358H180.465L179.47 31.1865H174.496L180.85 17.3759H187.375L193.882 31.1865H188.594L187.581 28.9358ZM184.014 20.9951L181.926 25.7127H186.138L184.014 20.9951ZM195.351 17.3759H206.814C210.749 17.3759 211.95 18.8794 211.95 20.608V20.734C211.95 22.5886 210.328 23.3899 209.288 23.534C210.713 23.741 212.703 24.5603 212.703 26.9281V27.1172C212.703 29.4039 211.313 31.1865 206.823 31.1865H195.343V17.3759H195.351ZM200.343 20.608V22.6157H205.425C206.483 22.6157 206.814 22.2105 206.814 21.6343V21.5983C206.814 21.0041 206.465 20.617 205.425 20.617H200.343V20.608ZM200.343 25.6047V27.8104H205.793C207.119 27.8104 207.343 27.2162 207.343 26.694V26.622C207.343 26.0818 207.119 25.6047 205.793 25.6047H200.343ZM219.854 21.1842H214.352V17.3759H230.34V21.1842H224.837V31.1865H219.863V21.1842H219.854ZM241.803 17.1418C249.143 17.1418 250.658 21.1121 250.658 23.9751V24.5333C250.658 27.3513 249.161 31.4386 241.803 31.4386H240.97C233.647 31.4386 232.115 27.3513 232.115 24.5333V23.9751C232.115 21.0941 233.665 17.1418 240.97 17.1418H241.803ZM245.442 24.1192C245.442 22.7867 244.85 20.8871 241.373 20.8871C237.896 20.8871 237.322 22.7777 237.322 24.1192V24.3262C237.322 25.6587 237.931 27.6303 241.391 27.6303C244.85 27.6303 245.442 25.6587 245.442 24.3262V24.1192ZM253.14 17.3759H260.015L263.725 25.2625L267.516 17.3759H274.094V31.1865H269.219V22.5526L265.132 31.1865H261.986L257.935 22.5526V31.1865H253.132V17.3759H253.14ZM288.649 28.9448H281.533L280.538 31.1956H275.564L281.918 17.3849H288.443L294.95 31.1956H289.662L288.64 28.9448H288.649ZM285.082 21.0041L282.994 25.7217H287.206L285.082 21.0041ZM301.232 21.1932H295.729V17.3849H311.718V21.1932H306.215V31.1956H301.241V21.1932H301.232ZM325.95 22.8677L319.094 31.2046H314.102V17.3939H319.094V25.7307L325.95 17.3939H330.924V31.2046H325.95V22.8677ZM338.99 25.0375V31.2046H334.016V17.3939H338.99V22.7417L344.646 17.3939H350.507L343.821 23.633L350.973 31.2046H344.673L338.999 25.0375H338.99ZM363.691 28.9538H356.574L355.58 31.2046H350.606L356.96 17.3939H363.484L369.991 31.2046H364.703L363.682 28.9538H363.691ZM360.124 21.0131L358.035 25.7307H362.248L360.124 21.0131ZM100.333 37.2366H115.784V40.5587H105.325V42.0622H111.186C115.255 42.0622 116.788 43.9889 116.788 46.4467V46.6538C116.788 49.1026 115.255 51.0563 111.186 51.0563H100.342V37.2456L100.333 37.2366ZM109.977 47.7251C111.007 47.7251 111.563 47.293 111.563 46.5728V46.4827C111.563 45.8165 111.025 45.3844 109.977 45.3844H105.316V47.7251H109.977ZM130.912 42.7104L124.056 51.0473H119.064V37.2366H124.056V45.5734L130.912 37.2366H135.887V51.0473H130.912V42.7104ZM150.827 42.7104L143.971 51.0473H138.979V37.2366H143.971V45.5734L150.827 37.2366H155.801V51.0473H150.827V42.7104ZM147.26 36.3273C143.657 36.3273 143.155 34.1576 143.155 32.9872V32.9511H146.337C146.39 33.3383 146.525 34.0135 147.466 34.0135H147.484C148.371 34.0135 148.595 33.3473 148.595 32.9511H151.741V32.9872C151.741 34.1576 150.961 36.3273 147.654 36.3273H147.269H147.26ZM166.896 51.2723C159.762 51.2723 158.283 47.0949 158.283 44.385V43.8268C158.283 41.0989 159.726 37.0115 166.896 37.0115H167.73C174.935 37.0115 176.244 40.3697 176.244 42.6924V42.8455H171.091C171.037 42.5124 170.741 40.7658 167.317 40.7658C164.118 40.7658 163.49 42.6384 163.49 43.9619V44.1869C163.49 45.5194 164.154 47.4731 167.335 47.4731C170.732 47.4731 171.028 45.7085 171.091 45.4114H176.244V45.5644C176.244 47.7161 174.971 51.2813 167.73 51.2813H166.896V51.2723ZM183.692 44.8892V51.0563H178.717V37.2456H183.692V42.5934L189.347 37.2456H195.208L188.522 43.4847L195.674 51.0563H189.374L183.7 44.8892H183.692Z" fill="white"/>
    <path d="M43.512 0C18.7043 0 0 14.6119 0 33.9955C0 53.3791 18.7043 67.991 43.512 67.991C68.3197 67.991 87.024 53.3701 87.024 33.9955C87.024 14.6209 68.3197 0 43.512 0ZM43.512 6.91434C59.6979 6.91434 72.8008 13.9097 77.8735 24.2542H57.1795C56.0592 24.2542 55.0017 24.8034 54.3474 25.7217C53.6932 26.64 53.5229 27.8194 53.8904 28.8908L58.5149 42.4764H28.5091L33.1337 28.8908C33.5011 27.8194 33.3219 26.64 32.6766 25.7217C32.0223 24.8034 30.9648 24.2542 29.8445 24.2542H9.15948C14.2321 13.9097 27.3261 6.91434 43.512 6.91434ZM43.512 61.0857C22.6298 61.0857 6.87409 49.4447 6.87409 33.9955C6.87409 33.0592 6.93683 32.1409 7.04438 31.2406H24.96L20.3355 44.8262C19.968 45.8975 20.1473 47.0769 20.7926 47.9952C21.4468 48.9135 22.5044 49.4627 23.6246 49.4627H63.3725C64.4928 49.4627 65.5503 48.9135 66.2046 47.9952C66.8588 47.0769 67.0291 45.8975 66.6617 44.8262L62.0371 31.2406H79.9528C80.0693 32.1409 80.123 33.0592 80.123 33.9955C80.123 49.4357 64.3763 61.0857 43.4941 61.0857H43.512Z" fill="#EC0000"/>
  </g>
  <defs>
    <clipPath id="clip0_5_1133">
      <rect width="370" height="68" fill="white"/>
    </clipPath>
  </defs>
</svg>