<svg width="370" height="68" viewBox="0 0 370 68" fill="none" xmlns="http://www.w3.org/2000/svg">
<g clip-path="url(#clip0_5_1133)">
<path d="M108.336 31.4116C101.202 31.4116 99.7236 27.2342 99.7236 24.5243V23.9661C99.7236 21.2382 101.167 17.1508 108.336 17.1508H109.17C116.376 17.1508 117.693 20.5089 117.693 22.8317V22.9848H112.54C112.486 22.6517 112.19 20.9051 108.767 20.9051C105.567 20.9051 104.94 22.7777 104.94 24.1012V24.3262C104.94 25.6587 105.603 27.6123 108.785 27.6123C112.181 27.6123 112.477 25.8477 112.54 25.5506H117.693V25.7037C117.693 27.8554 116.42 31.4206 109.17 31.4206H108.336V31.4116ZM120.158 17.3759H136.164V31.1865H131.19V20.8691H125.15V31.1865H120.158V17.3759ZM152.996 17.3759V20.716H144.239V22.4806H152.718V25.9108H144.239V27.8014H153.13V31.1775H139.274V17.3669H153.005L152.996 17.3759ZM169.549 31.1865H155.89V17.3759H160.882V27.7024H166.923V17.3759H171.897V27.7024H174.111V33.5093H169.549V31.1865ZM187.581 28.9358H180.465L179.47 31.1865H174.496L180.85 17.3759H187.375L193.882 31.1865H188.594L187.581 28.9358ZM184.014 20.9951L181.926 25.7127H186.138L184.014 20.9951ZM195.351 17.3759H206.814C210.749 17.3759 211.95 18.8794 211.95 20.608V20.734C211.95 22.5886 210.328 23.3899 209.288 23.534C210.713 23.741 212.703 24.5603 212.703 26.9281V27.1172C212.703 29.4039 211.313 31.1865 206.823 31.1865H195.343V17.3759H195.351ZM200.343 20.608V22.6157H205.425C206.483 22.6157 206.814 22.2105 206.814 21.6343V21.5983C206.814 21.0041 206.465 20.617 205.425 20.617H200.343V20.608ZM200.343 25.6047V27.8104H205.793C207.119 27.8104 207.343 27.2162 207.343 26.694V26.622C207.343 26.0818 207.119 25.6047 205.793 25.6047H200.343ZM219.854 21.1842H214.352V17.3759H230.34V21.1842H224.837V31.1865H219.863V21.1842H219.854ZM241.803 17.1418C249.143 17.1418 250.658 21.1121 250.658 23.9751V24.5333C250.658 27.3513 249.161 31.4386 241.803 31.4386H240.97C233.647 31.4386 232.115 27.3513 232.115 24.5333V23.9751C232.115 21.0941 233.665 17.1418 240.97 17.1418H241.803ZM245.442 24.1192C245.442 22.7867 244.85 20.8871 241.373 20.8871C237.896 20.8871 237.322 22.7777 237.322 24.1192V24.3262C237.322 25.6587 237.931 27.6303 241.391 27.6303C244.85 27.6303 245.442 25.6587 245.442 24.3262V24.1192ZM253.14 17.3759H260.015L263.725 25.2625L267.516 17.3759H274.094V31.1865H269.219V22.5526L265.132 31.1865H261.986L257.935 22.5526V31.1865H253.132V17.3759H253.14ZM288.649 28.9448H281.533L280.538 31.1956H275.564L281.918 17.3849H288.443L294.95 31.1956H289.662L288.64 28.9448H288.649ZM285.082 21.0041L282.994 25.7217H287.206L285.082 21.0041ZM301.232 21.1932H295.729V17.3849H311.718V21.1932H306.215V31.1956H301.241V21.1932H301.232ZM325.95 22.8677L319.094 31.2046H314.102V17.3939H319.094V25.7307L325.95 17.3939H330.924V31.2046H325.95V22.8677ZM338.99 25.0375V31.2046H334.016V17.3939H338.99V22.7417L344.646 17.3939H350.507L343.821 23.633L350.973 31.2046H344.673L338.999 25.0375H338.99ZM363.691 28.9538H356.574L355.58 31.2046H350.606L356.96 17.3939H363.484L369.991 31.2046H364.703L363.682 28.9538H363.691ZM360.124 21.0131L358.035 25.7307H362.248L360.124 21.0131ZM100.333 37.2366H115.784V40.5587H105.325V42.0622H111.186C115.255 42.0622 116.788 43.9889 116.788 46.4467V46.6538C116.788 49.1026 115.255 51.0563 111.186 51.0563H100.342V37.2456L100.333 37.2366ZM109.977 47.7251C111.007 47.7251 111.563 47.293 111.563 46.5728V46.4827C111.563 45.8165 111.025 45.3844 109.977 45.3844H105.316V47.7251H109.977ZM130.912 42.7104L124.056 51.0473H119.064V37.2366H124.056V45.5734L130.912 37.2366H135.887V51.0473H130.912V42.7104ZM150.827 42.7104L143.971 51.0473H138.979V37.2366H143.971V45.5734L150.827 37.2366H155.801V51.0473H150.827V42.7104ZM147.26 36.3273C143.657 36.3273 143.155 34.1576 143.155 32.9872V32.9511H146.337C146.39 33.3383 146.525 34.0135 147.466 34.0135H147.484C148.371 34.0135 148.595 33.3473 148.595 32.9511H151.741V32.9872C151.741 34.1576 150.961 36.3273 147.654 36.3273H147.269H147.26ZM166.896 51.2723C159.762 51.2723 158.283 47.0949 158.283 44.385V43.8268C158.283 41.0989 159.726 37.0115 166.896 37.0115H167.73C174.935 37.0115 176.244 40.3697 176.244 42.6924V42.8455H171.091C171.037 42.5124 170.741 40.7658 167.317 40.7658C164.118 40.7658 163.49 42.6384 163.49 43.9619V44.1869C163.49 45.5194 164.154 47.4731 167.335 47.4731C170.732 47.4731 171.028 45.7085 171.091 45.4114H176.244V45.5644C176.244 47.7161 174.971 51.2813 167.73 51.2813H166.896V51.2723ZM183.692 44.8892V51.0563H178.717V37.2456H183.692V42.5934L189.347 37.2456H195.208L188.522 43.4847L195.674 51.0563H189.374L183.7 44.8892H183.692Z" fill="white"/>
<path d="M43.512 0C18.7043 0 0 14.6119 0 33.9955C0 53.3791 18.7043 67.991 43.512 67.991C68.3197 67.991 87.024 53.3701 87.024 33.9955C87.024 14.6209 68.3197 0 43.512 0ZM43.512 6.91434C59.6979 6.91434 72.8008 13.9097 77.8735 24.2542H57.1795C56.0592 24.2542 55.0017 24.8034 54.3474 25.7217C53.6932 26.64 53.5229 27.8194 53.8904 28.8908L58.5149 42.4764H28.5091L33.1337 28.8908C33.5011 27.8194 33.3219 26.64 32.6766 25.7217C32.0223 24.8034 30.9648 24.2542 29.8445 24.2542H9.15948C14.2321 13.9097 27.3261 6.91434 43.512 6.91434ZM43.512 61.0857C22.6298 61.0857 6.87409 49.4447 6.87409 33.9955C6.87409 33.0592 6.93683 32.1409 7.04438 31.2406H24.96L20.3355 44.8262C19.968 45.8975 20.1473 47.0769 20.7926 47.9952C21.4468 48.9135 22.5044 49.4627 23.6246 49.4627H63.3725C64.4928 49.4627 65.5503 48.9135 66.2046 47.9952C66.8588 47.0769 67.0291 45.8975 66.6617 44.8262L62.0371 31.2406H79.9528C80.0693 32.1409 80.123 33.0592 80.123 33.9955C80.123 49.4357 64.3763 61.0857 43.4941 61.0857H43.512Z" fill="#EC0000"/>
<path d="M279.068 47.437H277.383C277.034 47.437 276.899 47.293 276.899 47.0769C276.899 46.8609 277.025 46.7168 277.383 46.7168H279.068V47.446V47.437ZM279.068 48.5264V49.8499H280.583V45.6364H277.07C275.896 45.6364 275.304 46.2396 275.304 47.0229V47.0769C275.304 47.7702 275.752 48.2203 276.559 48.3464L275.089 49.8499H276.891L278.19 48.5264H279.068ZM272.938 49.8499H274.453V45.6364H272.938L270.85 48.1753V45.6364H269.326V49.8499H270.85L272.938 47.311V49.8499ZM266.862 49.8499H268.376V45.6364H266.862V47.1219H264.738V45.6364H263.214V49.8499H264.738V48.2563H266.862V49.8499ZM258.141 45.6364V49.8499H262.372V48.8235H259.656V48.2473H262.246V47.203H259.656V46.6628H262.327V45.6454H258.141V45.6364ZM250.308 49.8499H257.191V45.6364H255.677V48.7875H254.512V45.6364H252.997V48.7875H251.832V45.6364H250.308V49.8499ZM247.942 48.9135L249.914 45.6364H248.283L247.091 47.6891L245.863 45.6364H244.16L245.899 48.4274C245.971 48.5264 245.988 48.5804 245.988 48.6525C245.988 48.7245 245.953 48.7605 245.863 48.7605H245.11V49.8499H246.401C247.252 49.8499 247.575 49.5258 247.942 48.9135ZM239.105 46.7978H240.781V49.8499H242.296V46.7978H243.972V45.6364H239.096V46.7978H239.105ZM236.972 47.6891V47.7522C236.972 48.1573 236.793 48.7605 235.736 48.7605C234.678 48.7605 234.499 48.1573 234.499 47.7522V47.6891C234.499 47.284 234.678 46.7078 235.736 46.7078C236.793 46.7078 236.972 47.293 236.972 47.6891ZM235.61 45.5554C233.378 45.5554 232.912 46.7708 232.912 47.6351V47.8062C232.912 48.6705 233.378 49.9129 235.61 49.9129H235.861C238.102 49.9129 238.559 48.6705 238.559 47.8062V47.6351C238.559 46.7618 238.093 45.5554 235.861 45.5554H235.61ZM228.853 46.7078H230.251C230.663 46.7078 230.779 46.8969 230.779 47.0949C230.779 47.329 230.663 47.5091 230.251 47.5091H228.853V46.7078ZM230.394 48.5894C231.936 48.5894 232.366 47.9682 232.366 47.1309V47.0589C232.366 46.2306 231.962 45.6364 230.394 45.6364H227.329V49.8499H228.853V48.5894H230.394ZM223.233 48.1753L223.869 46.7348L224.515 48.1753H223.233ZM225.268 49.8499H226.881L224.9 45.6364H222.911L220.975 49.8499H222.489L222.794 49.1656H224.963L225.277 49.8499H225.268ZM216.099 49.8499H217.614V48.0402L219.191 49.8499H221.082L219.03 47.5361L220.939 45.6364H219.182L217.614 47.194V45.6364H216.099V47.194L214.531 45.6364H212.747L214.701 47.5811L212.676 49.8499H214.522L216.099 48.0493V49.8499ZM210.883 47.6891V47.7522C210.883 48.1573 210.704 48.7605 209.646 48.7605C208.589 48.7605 208.409 48.1573 208.409 47.7522V47.6891C208.409 47.284 208.589 46.7078 209.646 46.7078C210.704 46.7078 210.883 47.293 210.883 47.6891ZM209.521 45.5554C207.289 45.5554 206.823 46.7708 206.823 47.6351V47.8062C206.823 48.6705 207.289 49.9129 209.521 49.9129H209.772C212.012 49.9129 212.469 48.6705 212.469 47.8062V47.6351C212.469 46.7618 212.003 45.5554 209.772 45.5554H209.521ZM201.177 49.8409H202.7V46.6898H204.547V49.8409H206.061V45.6274H201.177V49.8409ZM244.124 39.0192H242.601V43.2326H244.124V39.0192ZM238.684 42.1703V41.351H240.118C240.441 41.351 240.611 41.495 240.611 41.7291V41.7651C240.611 41.9992 240.45 42.1613 240.118 42.1613H238.684V42.1703ZM238.684 39.0192H237.161V43.2326H240.244C241.767 43.2326 242.197 42.5844 242.197 41.7831V41.7201C242.197 40.8558 241.776 40.2796 240.244 40.2796H238.675V39.0192H238.684ZM229.82 43.2326H231.29V40.5947L232.527 43.2326H233.486L234.732 40.5947V43.2326H236.22V39.0192H234.212L233.056 41.423L231.927 39.0192H229.829V43.2326H229.82ZM224.748 39.0192V43.2326H228.978V42.1973H226.262V41.6211H228.853V40.5767H226.262V40.0365H228.933V39.0192H224.748ZM219.137 40.1806H220.813V43.2326H222.328V40.1806H224.004V39.0192H219.128V40.1806H219.137ZM216.001 43.3046C218.205 43.3046 218.6 42.2153 218.6 41.5581V41.513H217.022C217.013 41.6031 216.915 42.1433 215.875 42.1433C214.907 42.1433 214.701 41.5401 214.701 41.1439V41.0719C214.701 40.6668 214.889 40.0996 215.866 40.0996C216.906 40.0996 217.004 40.6307 217.013 40.7298H218.591V40.6848C218.591 39.9735 218.187 38.9562 215.992 38.9562H215.741C213.563 38.9562 213.115 40.1986 213.115 41.0359V41.2069C213.115 42.0352 213.563 43.3046 215.741 43.3046H215.992H216.001ZM210.838 43.2326H212.353V39.0192H210.838L208.75 41.5581V39.0192H207.226V43.2326H208.75L210.838 40.6938V43.2326ZM203.866 43.3046C206.07 43.3046 206.465 42.2153 206.465 41.5581V41.513H204.887C204.878 41.6031 204.78 42.1433 203.74 42.1433C202.772 42.1433 202.566 41.5401 202.566 41.1439V41.0719C202.566 40.6668 202.754 40.0996 203.731 40.0996C204.771 40.0996 204.869 40.6307 204.878 40.7298H206.456V40.6848C206.456 39.9735 206.052 38.9562 203.857 38.9562H203.606C201.428 38.9562 200.98 40.1986 200.98 41.0359V41.2069C200.98 42.0352 201.428 43.3046 203.606 43.3046H203.857H203.866Z" fill="white"/>
</g>
<defs>
<clipPath id="clip0_5_1133">
<rect width="370" height="68" fill="white"/>
</clipPath>
</defs>
</svg>
