<?xml version="1.0" standalone="no"?>
<!DOCTYPE svg PUBLIC "-//W3C//DTD SVG 20010904//EN"
 "http://www.w3.org/TR/2001/REC-SVG-20010904/DTD/svg10.dtd">
<svg version="1.0" xmlns="http://www.w3.org/2000/svg"
 width="87.000000pt" height="87.000000pt" viewBox="0 0 87.000000 87.000000"
 preserveAspectRatio="xMidYMid meet">
<metadata>
Created by potrace 1.14, written by Peter Selinger 2001-2017
</metadata>
<g transform="translate(0.000000,87.000000) scale(0.100000,-0.100000)"
fill="#000000" stroke="none">
<path d="M325 779 c-16 -5 -41 -11 -54 -14 -85 -16 -201 -109 -242 -193 -33
-68 -32 -178 1 -247 114 -236 524 -292 730 -99 200 187 94 480 -197 548 -68
15 -192 18 -238 5z m229 -75 c33 -8 79 -26 102 -39 43 -26 119 -103 110 -113
-3 -3 -53 -6 -111 -6 -79 -1 -108 -5 -115 -15 -8 -13 3 -59 29 -124 6 -16 11
-31 11 -35 0 -4 -65 -8 -145 -8 -101 0 -145 3 -145 11 0 6 10 40 21 75 31 90
26 95 -101 95 -67 1 -105 5 -107 12 -7 19 52 77 108 107 102 56 225 70 343 40z
m-314 -239 c0 -7 -9 -38 -20 -70 -18 -54 -19 -93 -2 -97 30 -6 411 -3 425 4
22 11 22 32 -3 103 -11 31 -18 61 -15 65 2 4 42 6 87 6 l83 -2 -2 -41 c-4 -88
-67 -166 -173 -215 -54 -26 -81 -32 -161 -36 -178 -9 -309 53 -365 173 -22 46
-31 104 -19 117 3 3 41 5 85 5 55 0 80 -4 80 -12z"/>
</g>
</svg>
